<?xml version="1.0" encoding="utf-8"?>
<svg xmlns="http://www.w3.org/2000/svg" xmlns:xlink="http://www.w3.org/1999/xlink" baseProfile="tiny">
    <!--
        GENERATED - DO NOT EDIT BY HAND
        Fri Sep 13 2019 13:31:48 GMT+1000 (Australian Eastern Standard Time)
    -->
    <!-- ::: greyhound-racing ::: -->
    <symbol id="greyhound-racing" viewBox="0 0 32.007 14.528">
        <path d="M29.926.992c-.288-.16-.48-.32-1.056-.576S27.558.32 27.014.352C26.502.384 25.51 0 25.51 0c-.032.8.512 1.28.512 1.28-.8.256-1.792 1.44-2.56 1.792-.8.384-2.88-.32-5.408-1.184-2.528-.896-4.352-.576-6.432.576-.448.256-.8.576-1.056.896-.928.384-1.792.96-2.656 1.728-1.216 1.12-2.464 1.632-3.68 1.568C2.534 6.56 1.254 5.28.774 4.736c-.16-.192-.416-.224-.608-.064s-.224.448-.064.608c.704.8 2.112 2.144 4.096 2.24h.288c1.376 0 2.72-.608 4.032-1.792.448-.384.896-.736 1.376-1.024-.16.576-.128 1.024-.128 1.024s-.288 2.432 2.24 2.464 2.304.512 2.688 1.6c.128.416.128.864.16 1.248 0 0-2.336 1.792-2.688 1.856s-2.816.576-2.432 1.632c0 0 .928 0 2.208-.8.96-.608 2.048-.8 3.2-1.472.128.096.256.192.416.256 1.024.384 2.72.48 3.872.864.256.096.48.128.736.096.416-.032.928-.096.832-.384-.16-.48-.736-.576-1.728-.608-1.536-.032-1.856-.16-2.272-.576-.352-.352-.8-.8-.8-2.4 0-.384-.064-1.44 0-2.368.096-1.12-1.984-2.656-1.984-2.656 2.304 1.28 2.24 2.272 2.4 2.752.16.448 1.088.768 1.088.768l-1.184 1.312c0 .512.064 1.44.352 2.112.096-.512.576-.768 1.376-1.152.864-.384 4.224-1.408 4.896-2.272.64-.896 3.296-4.128 4.704-4.544 1.408-.384 1.056-.352 1.568-.352h2.208a.37.37 0 0 0 .384-.355V2.336c0-.224-2.08-1.344-2.08-1.344z" />
    </symbol>

    <!-- ::: harness-racing ::: -->
    <symbol id="harness-racing" viewBox="0 0 31.991 17.632">
        <path d="M29.239 1.568c-.096-.064-.192-.16-.288-.224C28.663.672 28.727 0 28.727 0c-.352.256-.608.832-.736 1.12-.48-.128-3.328-.608-7.136 3.52 0 0 .704-.32 1.504-.288-.8.288-1.76.448-2.784.448s-1.344-.224-3.52-.416c-.736-.064-1.888.064-2.784.608-.384-.544-1.664-1.12-2.88.128-.8.768-1.664 1.472-2.56 2.048-.544.192-1.216.352-1.728.256-.64-.16-1.152-1.216-1.632-1.76-.128-.128-.64-.352-.672-.448 0-.064 0-.096.032-.128.608-.064 1.152-.448.992-1.344 0-.16-.064-.32-.096-.448l.384-.032c.064 0 .16-.096.16-.192 0-.064-.064-.16-.16-.16h-.352c-.224-.288-.768-.672-1.088-.672-.64 0-1.344.352-1.344 1.12 0 .352.128.704.32.992.064.128.128.352.064.448-.32.352-2.176 1.248-2.016 5.024.032.672-.576.384-.672.96-.192 1.12.8 1.12 3.584 1.184a3.4 3.4 0 0 0-.704 2.08c0 1.92 1.536 3.488 3.456 3.488s3.456-1.568 3.456-3.488c0-.384-.064-.768-.192-1.152.16-.128.288-.256.352-.288.128-.096 2.464-1.504 3.616-2.24-.384-.544-.736-1.344-.768-1.568 0 0 .448.736 1.44 1.184.096.096.544.608.224 1.504-.384.992-.864.672-.416 1.376.48.704 2.464 2.784 2.304 3.328-.128.512.672 1.44.672 1.44 1.152-1.952-1.216-4.096-1.6-4.704-.352-.64.448-1.632.448-1.632 1.376-2.176.832-4.384.832-4.384.608 1.024.288 2.368.288 2.368.416.416 1.76.864 2.88 1.216.512.544 1.248 1.248 1.76 1.536.96.544 1.632 1.152 1.536 1.408s-1.664.8-1.856.768c-.224 0-.928-.384-.928-.384s-1.056-.864-1.12-.864c-.8-.032-1.248.288-1.248.288l.128.096c.416.224 3.008 1.728 3.008 1.728s2.24-.32 3.168-1.12c.48-.416-.16-1.248-.544-1.952l-.48-.864c.384-.128.864-.32 1.312-.512 1.312.192 2.848.448 2.944.512.192.128.256 1.504-.16 3.104l-1.152.832.768 1.216s1.088-1.024 1.344-3.008c.288-2.24.192-2.88.192-2.88s-1.28-.8-2.24-1.344c.224-.832.256-1.696.256-1.696C27.415 5.952 28.215 4 28.215 4c.416 1.088 1.504.96 1.696 1.184.192.256.288.96.96.736s1.12-1.088 1.12-1.088l-2.752-3.264zM3.863 8.48l-.032-.992s.544.608 1.184.928c-.416.096-.8.128-1.152.064zm7.744 1.504c-.256.32-1.472.608-2.144 1.728-.096.16-.16.256-.256.384-.16-.192-.288-.384-.448-.512l3.072-2.272c-.064.384-.096.512-.224.672zm.32-2.848c0 .448-.032.832-.032 1.152l-3.808 2.784c-.032-.032-.096-.032-.16-.064.032-.768.256-2.208 1.696-2.88 2.016-.96 1.12-3.296 3.04-2.72h.032c-.416.416-.704.992-.768 1.728z" />
    </symbol>

    <!-- ::: horse-racing ::: -->
    <symbol id="horse-racing" viewBox="0 0 32.007 19.926">
        <path d="M31.584 5.782s-1.216-1.376-1.632-2.144c-.256-.512-.864-1.376-1.76-1.536-.672-.544-1.376-.512-1.376-.512s.256.192.288.512c-.832 0-1.92.416-2.592.736.416-.448.608-1.184.64-1.664 0-.672-.544-1.376-1.632-1.12-.704.192-.928.928-.992 1.344-.032.384.192.768.192.768-.032.192-.192-.64-1.376-.768s-5.44.16-5.76 2.816c-.192 1.312 2.4 1.728 3.968 1.184 0 0-3.616 1.152-3.52 2.816 0 .256.16.512.448.736-.352-.192-.608-.448-.704-.8-.256-.832 1.76-2.176 1.76-2.176l-1.792-.512s-6.176-1.056-7.808.672c-1.376.128-3.264.672-4.256 2.432C2.048 11.51 0 9.59 0 9.59s1.504 3.488 4.192 1.92c1.28-.768.832-2.144 2.688-3.808-.704 1.536-.448 3.264 2.848 4.704 0 0 1.248.416 1.184 1.44-.064.992-.544 2.368.256 2.624.832.256 3.936 1.6 4.16 2.112.192.512.448 1.152 1.12 1.152.512.032 1.536.128 1.984.192-.672-.64-1.376-1.216-2.88-2.528-.672-.256-2.08-.832-2.272-.992-.224-.224-.704-.32-.608-1.504.064-1.184.384-2.528.192-4-.16-1.472-.704-1.92-.704-1.92s1.28.928 1.024 3.584c-.16 1.728-.416 2.752.416 3.392s1.888.992 1.888.992-1.216-.768-1.568-1.984c-.48-1.664-.224-2.848-.224-2.848s2.56 1.76 4.448 1.632c0 0 1.44 1.664 2.304 2.144.896.512 1.536 1.088 1.44 1.312-.096.256-1.568.768-1.76.736-.192 0-.832-.352-.832-.352s-1.024-.832-1.088-.832c-.736 0-1.152.288-1.152.288l.096.064c.416.256 2.848 1.664 2.848 1.664s2.112-.288 2.976-1.056c.448-.416-.128-1.184-.512-1.856-.352-.64-.864-1.536-.864-1.536s4.288.64 4.448.736c.192.128.256 1.408-.16 2.912l-1.088.8.736 1.152s1.024-.96 1.28-2.848c.256-2.112.16-2.72.16-2.72s-2.24-1.376-2.88-1.728c-.736.768-1.408 1.152-1.408 1.152 1.056-1.088 1.504-2.656 1.504-2.656.16-.576.352-1.184.544-1.76.448-1.408 2.08-3.328 2.496-3.424.384-.064.832.608 1.792.672.928.096 1.44.608 1.472.992 0 0 1.28.32 1.472-.576s-.384-1.248-.384-1.248zm-7.552-1.056c-.864 1.184-1.472 1.6-1.92 1.504-.832-.128-1.728-2.176-1.728-2.176s.896 1.728 1.728 1.92c.64.128.96-.672 2.496-2.112.416-.384.8-.384.8-.384-.512.224-.992.768-1.376 1.248z" />
    </symbol>
</svg>